<svg xmlns="http://www.w3.org/2000/svg" viewBox="0 0 512 512">
<defs>
 <linearGradient id="g" x1="0" y1="0" x2="1" y2="1"><stop stop-color="#70408b"/><stop offset="1" stop-color="#dd73ad"/></linearGradient>
 <filter id="s"><feDropShadow dx="0" dy="10" stdDeviation="10" flood-opacity=".22"/></filter>
</defs>
<rect width="512" height="512" rx="120" fill="url(#g)"/>
<path d="M256 73c24 63 51 92 116 116-65 24-92 51-116 116-24-65-51-92-116-116 65-24 92-53 116-116Z" fill="#fff" opacity=".96" filter="url(#s)"/>
<path d="M386 270c12 31 26 45 58 58-32 12-46 26-58 58-12-32-26-46-58-58 32-12 46-27 58-58Z" fill="#ffdff1"/>
<circle cx="139" cy="147" r="12" fill="#fff" opacity=".9"/>
<circle cx="390" cy="139" r="8" fill="#fff" opacity=".7"/>
<text x="256" y="408" text-anchor="middle" fill="#fff" font-family="sans-serif" font-weight="800" font-size="42">AIKATSU!</text>
</svg>